# xmcd CD database file
#
# Track frame offsets:
#	150
#	4273
#	55822
#	111048
#	164045
#	179120
#
# Disc length: 2414 seconds
#
# Revision: 0
# Processed by: cddbd v1.5.1PL2 Copyright (c) Steve Scherf et al.
# Submitted via: CDex 1.51
#
DISCID=50096c06
DTITLE=Miles Davis - Central Park 1969
DYEAR=1900
DGENRE=Jazz
TTITLE0=No Blues (Incomplete)
TTITLE1=Miles Runs The Voodoo Down
TTITLE2=Masqualero
TTITLE3=Spanish Key
TTITLE4=Sanctuary
TTITLE5=The Theme
EXTD=
EXTT0=
EXTT1=
EXTT2=
EXTT3=
EXTT4=
EXTT5=
PLAYORDER=
